<svg width="5424" height="2525" viewBox="0 0 5424 2525" fill="none" xmlns="http://www.w3.org/2000/svg">
<path d="M3059.83 2077.95C3059.83 2091.64 3059.04 2106.13 3057.46 2121.4H2711.44C2714.07 2164.06 2728.56 2197.5 2754.89 2221.73C2781.75 2245.43 2814.14 2257.28 2852.06 2257.28C2883.13 2257.28 2908.94 2250.17 2929.48 2235.95C2950.55 2221.2 2965.29 2201.72 2973.72 2177.49H3051.14C3039.55 2219.1 3016.38 2253.07 2981.62 2279.4C2946.86 2305.21 2903.67 2318.11 2852.06 2318.11C2810.98 2318.11 2774.11 2308.89 2741.46 2290.46C2709.33 2272.03 2684.05 2245.96 2665.62 2212.25C2647.19 2178.02 2637.97 2138.52 2637.97 2093.75C2637.97 2048.98 2646.92 2009.75 2664.83 1976.04C2682.74 1942.33 2707.75 1916.53 2739.88 1898.62C2772.53 1880.19 2809.93 1870.97 2852.06 1870.97C2893.14 1870.97 2929.48 1879.92 2961.08 1897.83C2992.68 1915.74 3016.91 1940.49 3033.76 1972.09C3051.14 2003.16 3059.83 2038.45 3059.83 2077.95ZM2985.57 2062.94C2985.57 2035.55 2979.51 2012.12 2967.4 1992.63C2955.29 1972.62 2938.7 1957.61 2917.63 1947.6C2897.09 1937.07 2874.18 1931.8 2848.9 1931.8C2812.56 1931.8 2781.49 1943.39 2755.68 1966.56C2730.4 1989.73 2715.92 2021.86 2712.23 2062.94H2985.57ZM3357.75 1870.18C3410.42 1870.18 3453.08 1886.24 3485.73 1918.37C3518.39 1949.97 3534.71 1995.79 3534.71 2055.83V2311H3463.61V2066.1C3463.61 2022.91 3452.82 1990 3431.22 1967.35C3409.63 1944.18 3380.14 1932.59 3342.74 1932.59C3304.82 1932.59 3274.54 1944.44 3251.89 1968.14C3229.77 1991.84 3218.71 2026.34 3218.71 2071.63V2311H3146.82V1878.08H3218.71V1939.7C3232.93 1917.58 3252.16 1900.46 3276.38 1888.35C3301.14 1876.24 3328.26 1870.18 3357.75 1870.18ZM4039.24 2077.95C4039.24 2091.64 4038.45 2106.13 4036.87 2121.4H3690.85C3693.49 2164.06 3707.97 2197.5 3734.3 2221.73C3761.16 2245.43 3793.55 2257.28 3831.47 2257.28C3862.55 2257.28 3888.35 2250.17 3908.89 2235.95C3929.96 2221.2 3944.71 2201.72 3953.13 2177.49H4030.55C4018.97 2219.1 3995.79 2253.07 3961.03 2279.4C3926.27 2305.21 3883.09 2318.11 3831.47 2318.11C3790.39 2318.11 3753.53 2308.89 3720.87 2290.46C3688.75 2272.03 3663.47 2245.96 3645.03 2212.25C3626.6 2178.02 3617.38 2138.52 3617.38 2093.75C3617.38 2048.98 3626.34 2009.75 3644.24 1976.04C3662.15 1942.33 3687.17 1916.53 3719.29 1898.62C3751.95 1880.19 3789.34 1870.97 3831.47 1870.97C3872.55 1870.97 3908.89 1879.92 3940.49 1897.83C3972.09 1915.74 3996.32 1940.49 4013.17 1972.09C4030.55 2003.16 4039.24 2038.45 4039.24 2077.95ZM3964.98 2062.94C3964.98 2035.55 3958.93 2012.12 3946.81 1992.63C3934.7 1972.62 3918.11 1957.61 3897.04 1947.6C3876.5 1937.07 3853.59 1931.8 3828.31 1931.8C3791.97 1931.8 3760.9 1943.39 3735.09 1966.56C3709.81 1989.73 3695.33 2021.86 3691.64 2062.94H3964.98ZM4198.13 1948.39C4210.77 1923.64 4228.67 1904.41 4251.85 1890.72C4275.55 1877.03 4304.25 1870.18 4337.96 1870.18V1944.44H4319C4238.42 1944.44 4198.13 1988.15 4198.13 2075.58V2311H4126.24V1878.08H4198.13V1948.39ZM4591.58 1870.97C4628.98 1870.97 4661.63 1879.13 4689.54 1895.46C4717.98 1911.79 4739.05 1932.33 4752.74 1957.08V1878.08H4825.42V2320.48C4825.42 2359.98 4817 2395 4800.14 2425.55C4783.29 2456.62 4759.06 2480.85 4727.46 2498.23C4696.39 2515.61 4660.05 2524.3 4618.44 2524.3C4561.56 2524.3 4514.16 2510.87 4476.24 2484.01C4438.32 2457.15 4415.94 2420.55 4409.09 2374.2H4480.19C4488.09 2400.53 4504.42 2421.6 4529.17 2437.4C4553.93 2453.73 4583.68 2461.89 4618.44 2461.89C4657.94 2461.89 4690.07 2449.51 4714.82 2424.76C4740.1 2400.01 4752.74 2365.25 4752.74 2320.48V2229.63C4738.52 2254.91 4717.46 2275.98 4689.54 2292.83C4661.63 2309.68 4628.98 2318.11 4591.58 2318.11C4553.14 2318.11 4518.11 2308.63 4486.51 2289.67C4455.44 2270.71 4430.95 2244.11 4413.04 2209.88C4395.14 2175.65 4386.18 2136.67 4386.18 2092.96C4386.18 2048.72 4395.14 2010.01 4413.04 1976.83C4430.95 1943.12 4455.44 1917.05 4486.51 1898.62C4518.11 1880.19 4553.14 1870.97 4591.58 1870.97ZM4752.74 2093.75C4752.74 2061.1 4746.16 2032.66 4732.99 2008.43C4719.83 1984.2 4701.92 1965.77 4679.27 1953.13C4657.15 1939.96 4632.66 1933.38 4605.8 1933.38C4578.94 1933.38 4554.45 1939.7 4532.33 1952.34C4510.21 1964.98 4492.57 1983.41 4479.4 2007.64C4466.24 2031.87 4459.65 2060.31 4459.65 2092.96C4459.65 2126.14 4466.24 2155.11 4479.4 2179.86C4492.57 2204.09 4510.21 2222.78 4532.33 2235.95C4554.45 2248.59 4578.94 2254.91 4605.8 2254.91C4632.66 2254.91 4657.15 2248.59 4679.27 2235.95C4701.92 2222.78 4719.83 2204.09 4732.99 2179.86C4746.16 2155.11 4752.74 2126.4 4752.74 2093.75ZM5311.89 1878.08L5051.19 2514.82H4976.93L5062.25 2306.26L4887.66 1878.08H4967.45L5103.33 2228.84L5237.63 1878.08H5311.89Z" fill="#409942"/>
<path d="M1957.18 0C1860.74 0 1815.35 44.8963 1767.13 173.973L1211.18 1675.2H1472.14L1599.78 1330.06L1690.55 1091.54L1957.18 336.723L2229.48 1071.9L2325.92 1330.06L2450.73 1675.2H2711.69L2158.57 173.973C2107.51 42.0903 2062.13 0 1957.18 0ZM3749.84 0L3625.04 345.141L3528.59 603.295L3256.29 1338.47L2989.66 583.653L2898.89 345.141L2771.25 0H2510.29L3066.25 1498.42C3114.47 1627.49 3162.69 1672.39 3256.29 1672.39C3364.08 1672.39 3406.63 1630.3 3457.68 1498.42L4010.8 0H3749.84ZM241.102 1254.29V0H120.5H0V1257.1C0 1526.48 158.844 1675.2 439.656 1675.2H1066.52V1433.88H436.82C292.159 1433.88 241.102 1386.18 241.102 1254.29Z" fill="#E74011"/>
<path d="M1957.18 0C1860.74 0 1815.35 44.8963 1767.13 173.973L1211.18 1675.2H1472.14L1599.78 1330.06L1690.55 1091.54L1957.18 336.723L2229.48 1071.9L2325.92 1330.06L2450.73 1675.2H2711.69L2158.57 173.973C2107.51 42.0903 2062.13 0 1957.18 0ZM3749.84 0L3625.04 345.141L3528.59 603.295L3256.29 1338.47L2989.66 583.653L2898.89 345.141L2771.25 0H2510.29L3066.25 1498.42C3114.47 1627.49 3162.69 1672.39 3256.29 1672.39C3364.08 1672.39 3406.63 1630.3 3457.68 1498.42L4010.8 0H3749.84ZM241.102 1254.29V0H120.5H0V1257.1C0 1526.48 158.844 1675.2 439.656 1675.2H1066.52V1433.88H436.82C292.159 1433.88 241.102 1386.18 241.102 1254.29Z" fill="#E74011"/>
<path d="M4760.39 173.973C4709.33 42.0903 4663.95 0 4559 0C4462.56 0 4417.17 44.8963 4368.95 173.973L3813 1675.2H4073.96L4201.6 1330.06L4292.37 1091.54L4559 336.723L4831.3 1071.9L4927.74 1330.06L5052.55 1675.2H5313.5L4760.39 173.973Z" fill="#E74011"/>
<path d="M4760.39 173.973C4709.33 42.0903 4663.95 0 4559 0C4462.56 0 4417.17 44.8963 4368.95 173.973L3813 1675.2H4073.96L4201.6 1330.06L4292.37 1091.54L4559 336.723L4831.3 1071.9L4927.74 1330.06L5052.55 1675.2H5313.5L4760.39 173.973Z" fill="#E74011"/>
</svg>
